{
  "accessors": [
    {
      "bufferView": 2,
      "componentType": 5126,
      "count": 16877,
      "max": [
        0.9553419947624207,
        0.9553419947624207,
        0.24345123767852783
      ],
      "min": [
        -0.9553419947624207,
        -0.9553419947624207,
        -0.06639578938484192
      ],
      "type": "VEC3"
    },
    {
      "bufferView": 2,
      "byteOffset": 202524,
      "componentType": 5126,
      "count": 16877,
      "max": [
        1.0,
        1.0,
        1.0
      ],
      "min": [
        -1.0,
        -1.0,
        -1.0
      ],
      "type": "VEC3"
    },
    {
      "bufferView": 1,
      "componentType": 5126,
      "count": 16877,
      "max": [
        0.0,
        0.0
      ],
      "min": [
        0.0,
        0.0
      ],
      "type": "VEC2"
    },
    {
      "bufferView": 1,
      "byteOffset": 135016,
      "componentType": 5126,
      "count": 16877,
      "max": [
        0.5730122923851013,
        0.5730122923851013
      ],
      "min": [
        0.4269876778125763,
        0.4269876778125763
      ],
      "type": "VEC2"
    },
    {
      "bufferView": 0,
      "componentType": 5125,
      "count": 72798,
      "type": "SCALAR"
    },
    {
      "bufferView": 2,
      "byteOffset": 405048,
      "componentType": 5126,
      "count": 14810,
      "max": [
        0.40000003576278687,
        -0.8098322153091431,
        0.151500403881073
      ],
      "min": [
        -0.3892163932323456,
        -3.4076807498931885,
        0.019873248413205147
      ],
      "type": "VEC3"
    },
    {
      "bufferView": 2,
      "byteOffset": 582768,
      "componentType": 5126,
      "count": 14810,
      "max": [
        1.0,
        1.0,
        0.9999086260795593
      ],
      "min": [
        -0.9999768733978271,
        -0.9990160465240479,
        -0.9999998211860657
      ],
      "type": "VEC3"
    },
    {
      "bufferView": 1,
      "byteOffset": 270032,
      "componentType": 5126,
      "count": 14810,
      "max": [
        1.0000001192092896,
        1.0000001192092896
      ],
      "min": [
        0.0,
        0.0
      ],
      "type": "VEC2"
    },
    {
      "bufferView": 1,
      "byteOffset": 388512,
      "componentType": 5126,
      "count": 14810,
      "max": [
        0.7157929539680481,
        0.7110653519630432
      ],
      "min": [
        0.3018341660499573,
        0.28893476724624634
      ],
      "type": "VEC2"
    },
    {
      "bufferView": 0,
      "byteOffset": 291192,
      "componentType": 5125,
      "count": 75888,
      "type": "SCALAR"
    }
  ],
  "asset": {
    "extras": {
      "author": "guest177385 (https://sketchfab.com/guest177385)",
      "license": "CC-BY-4.0 (http://creativecommons.org/licenses/by/4.0/)",
      "source": "https://sketchfab.com/3d-models/a-low-poly-key-90df0b2640e04481862aff7d89a66a35",
      "title": "A Low Poly Key"
    },
    "generator": "Sketchfab-15.1.0",
    "version": "2.0"
  },
  "bufferViews": [
    {
      "buffer": 0,
      "byteLength": 594744,
      "name": "floatBufferViews",
      "target": 34963
    },
    {
      "buffer": 0,
      "byteLength": 506992,
      "byteOffset": 594744,
      "byteStride": 8,
      "name": "floatBufferViews",
      "target": 34962
    },
    {
      "buffer": 0,
      "byteLength": 760488,
      "byteOffset": 1101736,
      "byteStride": 12,
      "name": "floatBufferViews",
      "target": 34962
    }
  ],
  "buffers": [
    {
      "byteLength": 1862224,
      "uri": "scene.bin"
    }
  ],
  "materials": [
    {
      "doubleSided": true,
      "name": "Rubber_Black",
      "pbrMetallicRoughness": {
        "baseColorFactor": [
          0.01,
          0.01,
          0.01,
          1.0
        ],
        "metallicFactor": 0.0,
        "roughnessFactor": 0.9977639320225002
      }
    },
    {
      "doubleSided": true,
      "name": "Material.001",
      "pbrMetallicRoughness": {
        "baseColorFactor": [
          0.8,
          0.8,
          0.8,
          1.0
        ],
        "metallicFactor": 0.0,
        "roughnessFactor": 0.8211145618000169
      }
    }
  ],
  "meshes": [
    {
      "name": "Circle_Rubber Black_0",
      "primitives": [
        {
          "attributes": {
            "NORMAL": 1,
            "POSITION": 0,
            "TEXCOORD_0": 2,
            "TEXCOORD_1": 3
          },
          "indices": 4,
          "material": 0,
          "mode": 4
        }
      ]
    },
    {
      "name": "Circle_Material.001_0",
      "primitives": [
        {
          "attributes": {
            "NORMAL": 6,
            "POSITION": 5,
            "TEXCOORD_0": 7,
            "TEXCOORD_1": 8
          },
          "indices": 9,
          "material": 1,
          "mode": 4
        }
      ]
    }
  ],
  "nodes": [
    {
      "children": [
        1
      ],
      "matrix": [
        0.528822124004364,
        0.0,
        0.0,
        0.0,
        0.0,
        1.1742209960016492e-16,
        -0.528822124004364,
        0.0,
        0.0,
        0.528822124004364,
        1.1742209960016492e-16,
        0.0,
        0.0,
        0.0,
        0.0,
        1.0
      ],
      "name": "Sketchfab_model"
    },
    {
      "children": [
        2
      ],
      "matrix": [
        0.009999999776482582,
        0.0,
        0.0,
        0.0,
        0.0,
        0.0,
        0.009999999776482582,
        0.0,
        0.0,
        -0.009999999776482582,
        0.0,
        0.0,
        0.0,
        0.0,
        0.0,
        1.0
      ],
      "name": "84642b28a5554bd38cb8c1277f8276b8.fbx"
    },
    {
      "children": [
        3
      ],
      "name": "RootNode"
    },
    {
      "children": [
        4,
        5
      ],
      "matrix": [
        100.0,
        0.0,
        0.0,
        0.0,
        0.0,
        -2.8212996916465727e-05,
        -99.99999999999602,
        0.0,
        0.0,
        99.99999999999602,
        -2.8212996916465727e-05,
        0.0,
        0.0,
        0.0,
        -91.379638671875,
        1.0
      ],
      "name": "Circle"
    },
    {
      "mesh": 0,
      "name": "Circle_Rubber Black_0"
    },
    {
      "mesh": 1,
      "name": "Circle_Material.001_0"
    }
  ],
  "scene": 0,
  "scenes": [
    {
      "name": "Sketchfab_Scene",
      "nodes": [
        0
      ]
    }
  ]
}
